<?xml version="1.0" standalone="yes"?>
<svg xmlns="http://www.w3.org/2000/svg" width="800" height="800">
<path style="fill:#ffffff; stroke:none;" d="M0 0L0 800L800 800L800 0L0 0z"/>
<path style="fill:#fde189; stroke:none;" d="M145.018 291.762C137.048 293 138.957 304.759 146.961 303.728C155.016 302.69 152.937 290.531 145.018 291.762M181.109 299.043C173.856 302.884 179.907 313.778 186.852 309.816C193.274 306.153 187.84 295.479 181.109 299.043M109.004 302.917C101.105 303.58 101.96 315.365 109.985 314.793C117.871 314.232 116.848 302.258 109.004 302.917z"/>
<path style="fill:#bf8faa; stroke:none;" d="M145 312L146 313L145 312z"/>
<path style="fill:#b3557d; stroke:none;" d="M146.144 312.89C141.105 314.275 143.939 322.029 148.856 320.338C153.621 318.699 150.663 311.648 146.144 312.89z"/>
<path style="fill:#bf8faa; stroke:none;" d="M149 312L150 313L149 312M150 313L151 314L150 313M151 314L152 315L151 314M142.333 316.667L142.667 317.333L142.333 316.667M143 319L144 320L143 319M151 319L152 320L151 319z"/>
<path style="fill:#b3557d; stroke:none;" d="M174.318 320.047C170.029 322.76 174.3 329.725 178.682 326.953C182.971 324.24 178.7 317.275 174.318 320.047z"/>
<path style="fill:#bf8faa; stroke:none;" d="M144 320L145 321L144 320M150 320L151 321L150 320M172 320L173 321L172 320M146 321L146 322L149 322L146 321M180 321L181 322L180 321z"/>
<path style="fill:#fde189; stroke:none;" d="M212.059 321.786C204.49 324.44 209.217 336.57 216.775 333.253C223.511 330.297 219.055 319.333 212.059 321.786z"/>
<path style="fill:#bf8faa; stroke:none;" d="M120 322L118 325L120 322z"/>
<path style="fill:#b3557d; stroke:none;" d="M121.144 323.137C116.069 325.54 119.964 332.872 124.682 329.953C128.665 327.489 125.518 321.065 121.144 323.137z"/>
<path style="fill:#bf8faa; stroke:none;" d="M124 322L125 323L124 322M172 325L173 326L172 325M127 326L128 327L127 326z"/>
<path style="fill:#fde189; stroke:none;" d="M79.1481 330.032C72.6522 333.773 77.9351 344.552 84.8665 340.806C92.0795 336.906 86.3615 325.877 79.1481 330.032z"/>
<path style="fill:#bf8faa; stroke:none;" d="M118 329L119 330L118 329M126 329L127 330L126 329M119 330L120 331L119 330M125 330L126 331L125 330M121 331L121 332L124 332L121 331M196 336L197 337L196 336z"/>
<path style="fill:#b3557d; stroke:none;" d="M197.214 336.851C192.463 338.494 195.06 346.011 199.867 344.338C204.659 342.669 201.983 335.201 197.214 336.851z"/>
<path style="fill:#bf8faa; stroke:none;" d="M200 336L201 337L200 336M194 338L195 339L194 338M202 338L203 339L202 338M102 341L102 342L105 342L102 341M100 342L98 348L99 348L100 342z"/>
<path style="fill:#b3557d; stroke:none;" d="M101.303 343.047C97.5081 345.482 100.417 352.342 104.686 349.914C108.74 347.608 105.798 340.163 101.303 343.047z"/>
<path style="fill:#bf8faa; stroke:none;" d="M194.333 342.667L194.667 343.333L194.333 342.667M106 343L107 344L106 343M202 343L203 344L202 343M107 344L107 348L108 348L107 344M201 344L202 345L201 344M197 345L197 346L200 346L197 345M328.667 348.333L329.333 348.667L328.667 348.333z"/>
<path style="fill:#b3557d; stroke:none;" d="M330.667 348.333L331.333 348.667L330.667 348.333z"/>
<path style="fill:#63013d; stroke:none;" d="M365 401L350 398C346.149 411.087 331.185 416.482 324.519 401.999C320.419 393.093 320.092 377.856 324.558 369.001C331.748 354.743 343.926 362.357 349 373L363 369C355.819 342.956 316.806 340.532 308.217 367C303.726 380.839 303.856 402.181 313.39 413.985C330.123 434.699 357.12 421.31 365 401z"/>
<path style="fill:#b3557d; stroke:none;" d="M340.667 348.333L341.333 348.667L340.667 348.333z"/>
<path style="fill:#bf8faa; stroke:none;" d="M342.667 348.333L343.333 348.667L342.667 348.333M99 349L100 350L99 349M106 349L107 350L106 349z"/>
<path style="fill:#b3557d; stroke:none;" d="M231 349L231 423L232 423L232 372L231 349z"/>
<path style="fill:#63013d; stroke:none;" d="M232 349L232 423C245.028 423 261.535 425.479 272.996 417.891C290.616 406.227 292.269 368.341 274.985 355.637C263.079 346.886 245.895 349 232 349z"/>
<path style="fill:#b3557d; stroke:none;" d="M256.667 349.333L257.333 349.667L256.667 349.333z"/>
<path style="fill:#bf8faa; stroke:none;" d="M258 349L258 350L261 350L258 349M324.667 349.333L325.333 349.667L324.667 349.333z"/>
<path style="fill:#b3557d; stroke:none;" d="M345 349L346 350L345 349z"/>
<path style="fill:#bf8faa; stroke:none;" d="M346 349L347 350L346 349M385 349L385 423L386 423L386 372L385 349z"/>
<path style="fill:#63013d; stroke:none;" d="M386 349L386 423L440 423L440 411C431.254 411 410.622 414.846 403.318 409.972C399.292 407.286 399.542 393.615 404.148 391.603C411.987 388.181 426.463 391 435 391L435 379L401 379L402.028 363.318L412 361L438 361L438 349L386 349z"/>
<path style="fill:#bf8faa; stroke:none;" d="M438 349L438 361L402 361L402 362L439 362L438 349M461 349L461 423L462 423L462 372L461 349z"/>
<path style="fill:#63013d; stroke:none;" d="M462 349L462 423L516 423L516 411C507.254 411 486.622 414.846 479.318 409.972C475.292 407.286 475.542 393.615 480.148 391.603C487.987 388.181 502.463 391 511 391L511 379L477 379L478.028 363.318L488 361L514 361L514 349L462 349z"/>
<path style="fill:#bf8faa; stroke:none;" d="M514 349L514 361L478 361L478 362L515 362L514 349M100 350L101 351L100 350M105 350L106 351L105 350z"/>
<path style="fill:#b3557d; stroke:none;" d="M263 350L264 351L263 350z"/>
<path style="fill:#bf8faa; stroke:none;" d="M264 350L265 351L264 350M322 350L323 351L322 350z"/>
<path style="fill:#b3557d; stroke:none;" d="M348 350L349 351L348 350z"/>
<path style="fill:#bf8faa; stroke:none;" d="M267 351L268 352L267 351M320 351L321 352L320 351z"/>
<path style="fill:#b3557d; stroke:none;" d="M350 351L351 352L350 351M269 352L270 353L269 352z"/>
<path style="fill:#bf8faa; stroke:none;" d="M270 352L271 353L270 352M318 352L319 353L318 352M352 352L353 353L352 352z"/>
<path style="fill:#b3557d; stroke:none;" d="M271 353L272 354L271 353M317 353L318 354L317 353z"/>
<path style="fill:#bf8faa; stroke:none;" d="M353 353L354 354L353 353M273 354L274 355L273 354z"/>
<path style="fill:#b3557d; stroke:none;" d="M354 354L355 355L354 354M355 355L356 356L355 355z"/>
<path style="fill:#bf8faa; stroke:none;" d="M276 356L277 357L276 356z"/>
<path style="fill:#b3557d; stroke:none;" d="M356 356L357 357L356 356z"/>
<path style="fill:#bf8faa; stroke:none;" d="M277 357L278 358L277 357z"/>
<path style="fill:#b3557d; stroke:none;" d="M357 357L358 358L357 357z"/>
<path style="fill:#bf8faa; stroke:none;" d="M278 358L279 359L278 358z"/>
<path style="fill:#b3557d; stroke:none;" d="M312 358L313 359L312 358z"/>
<path style="fill:#bf8faa; stroke:none;" d="M358 358L359 359L358 358M279 359L280 360L279 359M311 359L312 360L311 359z"/>
<path style="fill:#b3557d; stroke:none;" d="M335.667 360.333L336.333 360.667L335.667 360.333M359 360L360 361L359 360M247 361L248 362L247 361z"/>
<path style="fill:#bf8faa; stroke:none;" d="M255 411L255 410L248 410L248 362L253 362C250.058 360.882 247.735 361.603 247.148 365.059C245.383 375.448 247 387.457 247 398C247 401.129 245.957 406.769 248.028 409.397C249.585 411.373 252.788 410.974 255 411z"/>
<path style="fill:#b3557d; stroke:none;" d="M253.667 361.333L254.333 361.667L253.667 361.333M280 361L281 362L280 361M310 361L311 362L310 361M331 361L332 362L331 361z"/>
<path style="fill:#bf8faa; stroke:none;" d="M332 361L333 362L332 361M340 361L341 362L340 361M360 361L361 362L360 361z"/>
<path style="fill:#ffffff; stroke:none;" d="M248 362L248 410C253.422 409.999 259.426 410.447 263.787 406.581C272.659 398.716 273.228 374.62 264.66 366.394C260.13 362.044 253.857 362.004 248 362z"/>
<path style="fill:#bf8faa; stroke:none;" d="M257.667 362.333L258.333 362.667L257.667 362.333M281 362L282 363L281 362z"/>
<path style="fill:#b3557d; stroke:none;" d="M329 362L330 363L329 362M342 362L343 363L342 362M401 362L401 379L402 379L401 362M477 362L477 379L478 379L477 362z"/>
<path style="fill:#bf8faa; stroke:none;" d="M260 363L261 364L260 363z"/>
<path style="fill:#b3557d; stroke:none;" d="M261 363L262 364L261 363M309 363L310 364L309 363z"/>
<path style="fill:#bf8faa; stroke:none;" d="M328 363L329 364L328 363M343 363L344 364L343 363M361 363L362 364L361 363z"/>
<path style="fill:#fde189; stroke:none;" d="M70.0147 364.786C61.9594 365.884 63.9173 378.67 71.9568 377.158C79.362 375.765 77.6497 363.746 70.0147 364.786z"/>
<path style="fill:#bf8faa; stroke:none;" d="M262 364L263 365L262 364M282 364L283 365L282 364M327 364L328 365L327 364z"/>
<path style="fill:#b3557d; stroke:none;" d="M344 364L345 365L344 364M361 364L362 365L361 364M264 365L265 366L264 365z"/>
<path style="fill:#bf8faa; stroke:none;" d="M308 365L309 366L308 365M326 365L327 366L326 365z"/>
<path style="fill:#b3557d; stroke:none;" d="M345 365L346 366L345 365z"/>
<path style="fill:#bf8faa; stroke:none;" d="M92 366L92 367L95 367L92 366z"/>
<path style="fill:#b3557d; stroke:none;" d="M265 366L266 367L265 366z"/>
<path style="fill:#bf8faa; stroke:none;" d="M283 366L284 367L283 366z"/>
<path style="fill:#b3557d; stroke:none;" d="M325 366L326 367L325 366M362 366L363 367L362 366z"/>
<path style="fill:#bf8faa; stroke:none;" d="M90 367L89 369L90 367z"/>
<path style="fill:#b3557d; stroke:none;" d="M91.3179 368.047C87.3352 370.511 90.482 376.935 94.8557 374.863C99.9309 372.46 96.0365 365.128 91.3179 368.047z"/>
<path style="fill:#bf8faa; stroke:none;" d="M96 367L97 368L96 367M325 367L326 368L325 367M346 367L347 368L346 367M97 368L98 369L97 368M266 368L267 369L266 368M284 368L285 369L284 368M307 368L308 369L307 368z"/>
<path style="fill:#b3557d; stroke:none;" d="M324 368L325 369L324 368z"/>
<path style="fill:#bf8faa; stroke:none;" d="M363.333 368.667L363.667 369.333L363.333 368.667z"/>
<path style="fill:#b3557d; stroke:none;" d="M267 369L268 370L267 369M284 369L285 370L284 369M307 369L308 370L307 369z"/>
<path style="fill:#bf8faa; stroke:none;" d="M324 369L325 370L324 369M347 369L348 370L347 369z"/>
<path style="fill:#b3557d; stroke:none;" d="M362 369L363 370L362 369z"/>
<path style="fill:#bf8faa; stroke:none;" d="M88.3333 370.667L88.6667 371.333L88.3333 370.667z"/>
<path style="fill:#b3557d; stroke:none;" d="M358 370L359 371L358 370z"/>
<path style="fill:#bf8faa; stroke:none;" d="M359 370L360 371L359 370z"/>
<path style="fill:#b3557d; stroke:none;" d="M268 371L269 372L268 371z"/>
<path style="fill:#bf8faa; stroke:none;" d="M285.333 371.667L285.667 372.333L285.333 371.667M306.333 371.667L306.667 372.333L306.333 371.667M323.333 371.667L323.667 372.333L323.333 371.667z"/>
<path style="fill:#b3557d; stroke:none;" d="M354 371L355 372L354 371z"/>
<path style="fill:#bf8faa; stroke:none;" d="M355 371L356 372L355 371M268 372L269 373L268 372M348 372L349 373L348 372M350.667 372.333L351.333 372.667L350.667 372.333M97 373L98 374L97 373z"/>
<path style="fill:#b3557d; stroke:none;" d="M285 373L286 374L285 373M306 373L307 374L306 373z"/>
<path style="fill:#bf8faa; stroke:none;" d="M96 374L97 375L96 374z"/>
<path style="fill:#b3557d; stroke:none;" d="M269 374L270 375L269 374M322.333 374.667L322.667 375.333L322.333 374.667z"/>
<path style="fill:#bf8faa; stroke:none;" d="M91 375L92 376L91 375M95 375L96 376L95 375M269 375L270 376L269 375M286 376L286 380L287 380L286 376M322.333 376.667L322.667 377.333L322.333 376.667M305 377L305 383L306 383L305 377z"/>
<path style="fill:#b3557d; stroke:none;" d="M270.333 379.667L270.667 380.333L270.333 379.667M286.333 380.667L286.667 381.333L286.333 380.667z"/>
<path style="fill:#bf8faa; stroke:none;" d="M270 381L270 390L271 390L270 381z"/>
<path style="fill:#b3557d; stroke:none;" d="M286 383L287 384L286 383M305 383L305 387L306 387L305 383M321 384L322 385L321 384M286 386L287 387L286 386M321 386L322 387L321 386z"/>
<path style="fill:#bf8faa; stroke:none;" d="M305 387L305 394L306 394L305 387z"/>
<path style="fill:#b3557d; stroke:none;" d="M286 388L286 391L287 391L286 388M270.333 390.667L270.667 391.333L270.333 390.667z"/>
<path style="fill:#bf8faa; stroke:none;" d="M286 391L286 395L287 395L286 391M402 391L402 392L435 392L402 391M478 391L478 392L511 392L478 391z"/>
<path style="fill:#b3557d; stroke:none;" d="M401 392L401 410L402 410L401 392M477 392L477 410L478 410L477 392z"/>
<path style="fill:#bf8faa; stroke:none;" d="M322 393L322 396L323 396L322 393M97 394L97 395L101 395L97 394z"/>
<path style="fill:#b3557d; stroke:none;" d="M96.6073 396.032C92.9334 398.931 97.9749 404.314 101.667 401.953C106.103 399.117 100.407 393.034 96.6073 396.032z"/>
<path style="fill:#bf8faa; stroke:none;" d="M102 395L103 396L102 395M269.333 395.667L269.667 396.333L269.333 395.667M103.333 396.667L103.667 397.333L103.333 396.667z"/>
<path style="fill:#b3557d; stroke:none;" d="M322 396L323 397L322 396z"/>
<path style="fill:#bf8faa; stroke:none;" d="M94 397L94 401L95 401L94 397z"/>
<path style="fill:#b3557d; stroke:none;" d="M285 397L286 398L285 397M306 397L307 398L306 397z"/>
<path style="fill:#bf8faa; stroke:none;" d="M285.333 398.667L285.667 399.333L285.333 398.667M306.333 398.667L306.667 399.333L306.333 398.667M323.333 398.667L323.667 399.333L323.333 398.667z"/>
<path style="fill:#b3557d; stroke:none;" d="M351 398L352 399L351 398z"/>
<path style="fill:#bf8faa; stroke:none;" d="M352.667 398.333L353.333 398.667L352.667 398.333M268 399L269 400L268 399M349 399L350 400L349 399z"/>
<path style="fill:#b3557d; stroke:none;" d="M357 399L358 400L357 399z"/>
<path style="fill:#bf8faa; stroke:none;" d="M358.667 399.333L359.333 399.667L358.667 399.333z"/>
<path style="fill:#b3557d; stroke:none;" d="M268 400L269 401L268 400M349 400L350 401L349 400M362 400L363 401L362 400z"/>
<path style="fill:#bf8faa; stroke:none;" d="M363.667 400.333L364.333 400.667L363.667 400.333z"/>
<path style="fill:#fde189; stroke:none;" d="M76.044 401.851C68.0996 404.147 72.0993 416.285 79.9414 413.381C86.8882 410.809 82.9079 399.867 76.044 401.851z"/>
<path style="fill:#bf8faa; stroke:none;" d="M95 401L96 402L95 401M103 401L104 402L103 401M267 401L268 402L267 401z"/>
<path style="fill:#b3557d; stroke:none;" d="M284 401L285 402L284 401M307 401L308 402L307 401z"/>
<path style="fill:#bf8faa; stroke:none;" d="M96 402L97 403L96 402M102 402L103 403L102 402z"/>
<path style="fill:#b3557d; stroke:none;" d="M267 402L268 403L267 402z"/>
<path style="fill:#bf8faa; stroke:none;" d="M284 402L285 403L284 402M307.333 402.667L307.667 403.333L307.333 402.667M324 402L325 403L324 402z"/>
<path style="fill:#b3557d; stroke:none;" d="M348 402L349 403L348 402z"/>
<path style="fill:#bf8faa; stroke:none;" d="M364.333 402.667L364.667 403.333L364.333 402.667M97 403L97 404L102 404L97 403M266 403L267 404L266 403z"/>
<path style="fill:#b3557d; stroke:none;" d="M283 404L284 405L283 404z"/>
<path style="fill:#bf8faa; stroke:none;" d="M325 404L326 405L325 404z"/>
<path style="fill:#b3557d; stroke:none;" d="M347 404L348 405L347 404M363 404L364 405L363 404M265 405L266 406L265 405z"/>
<path style="fill:#bf8faa; stroke:none;" d="M283 405L284 406L283 405M308 405L309 406L308 405M326 405L327 406L326 405M346 405L347 406L346 405M363 405L364 406L363 405z"/>
<path style="fill:#b3557d; stroke:none;" d="M264 406L265 407L264 406M282 406L283 407L282 406M263 407L264 408L263 407z"/>
<path style="fill:#bf8faa; stroke:none;" d="M282 407L283 408L282 407z"/>
<path style="fill:#b3557d; stroke:none;" d="M309 407L310 408L309 407M327 407L328 408L327 407M345 407L346 408L345 407z"/>
<path style="fill:#bf8faa; stroke:none;" d="M362 407L363 408L362 407M261 408L262 409L261 408z"/>
<path style="fill:#b3557d; stroke:none;" d="M281 408L282 409L281 408z"/>
<path style="fill:#bf8faa; stroke:none;" d="M309 408L310 409L309 408z"/>
<path style="fill:#b3557d; stroke:none;" d="M328 408L329 409L328 408M344 408L345 409L344 408z"/>
<path style="fill:#bf8faa; stroke:none;" d="M258.667 409.333L259.333 409.667L258.667 409.333z"/>
<path style="fill:#b3557d; stroke:none;" d="M310 409L311 410L310 409z"/>
<path style="fill:#bf8faa; stroke:none;" d="M330 409L331 410L330 409M342 409L343 410L342 409M361 409L362 410L361 409z"/>
<path style="fill:#b3557d; stroke:none;" d="M247 410L248 411L247 410M255.667 410.333L256.333 410.667L255.667 410.333z"/>
<path style="fill:#bf8faa; stroke:none;" d="M280 410L281 411L280 410M332 410L333 411L332 410M340 410L341 411L340 410z"/>
<path style="fill:#b3557d; stroke:none;" d="M341 410L342 411L341 410z"/>
<path style="fill:#bf8faa; stroke:none;" d="M402 410L402 411L441 411C430.726 406.689 413.172 410 402 410M478 410L478 411L517 411C506.726 406.689 489.172 410 478 410z"/>
<path style="fill:#b3557d; stroke:none;" d="M279 411L280 412L279 411z"/>
<path style="fill:#bf8faa; stroke:none;" d="M311 411L312 412L311 411z"/>
<path style="fill:#b3557d; stroke:none;" d="M336.667 411.333L337.333 411.667L336.667 411.333z"/>
<path style="fill:#bf8faa; stroke:none;" d="M360 411L361 412L360 411z"/>
<path style="fill:#b3557d; stroke:none;" d="M440 411L440 423L441 423L440 411M516 411L516 423L517 423L516 411z"/>
<path style="fill:#bf8faa; stroke:none;" d="M191 412C189.042 415.747 188.92 417.97 192 421L191 412z"/>
<path style="fill:#b3557d; stroke:none;" d="M192.314 413.086C188.358 415.342 191.461 422.322 195.686 419.914C199.642 417.658 196.539 410.678 192.314 413.086z"/>
<path style="fill:#bf8faa; stroke:none;" d="M196 412L197 413L196 412z"/>
<path style="fill:#b3557d; stroke:none;" d="M359 412L360 413L359 412z"/>
<path style="fill:#bf8faa; stroke:none;" d="M197 413L198 414L197 413M278 413L279 414L278 413M198 414L198 419L199 419L198 414M277 414L278 415L277 414M313 414L314 415L313 414M276 415L277 416L276 415M314 415L315 416L314 415M357 415L358 416L357 415M115 416L115 417L119 417L115 416M315 416L316 417L315 416M356 416L357 417L356 416z"/>
<path style="fill:#b3557d; stroke:none;" d="M114.603 418.032C110.857 420.942 115.546 427.664 119.397 424.214C122.994 420.99 118.598 414.93 114.603 418.032M273 417L274 418L273 417z"/>
<path style="fill:#bf8faa; stroke:none;" d="M316 417L317 418L316 417M355 417L356 418L355 417M272 418L273 419L272 418M317 418L318 419L317 418M112 419L112 423L113 423L112 419M121 419L121 423L122 423L121 419M197 419L198 420L197 419M270 419L271 420L270 419M319 419L320 420L319 419z"/>
<path style="fill:#b3557d; stroke:none;" d="M352 419L353 420L352 419z"/>
<path style="fill:#bf8faa; stroke:none;" d="M196 420L197 421L196 420M268 420L269 421L268 420M320 420L321 421L320 420z"/>
<path style="fill:#b3557d; stroke:none;" d="M321 420L322 421L321 420z"/>
<path style="fill:#bf8faa; stroke:none;" d="M351 420L352 421L351 420M193.667 421.333L194.333 421.667L193.667 421.333z"/>
<path style="fill:#b3557d; stroke:none;" d="M264 421L265 422L264 421z"/>
<path style="fill:#bf8faa; stroke:none;" d="M265 421L266 422L265 421z"/>
<path style="fill:#b3557d; stroke:none;" d="M323 421L324 422L323 421z"/>
<path style="fill:#bf8faa; stroke:none;" d="M349 421L350 422L349 421z"/>
<path style="fill:#b3557d; stroke:none;" d="M259 422L260 423L259 422z"/>
<path style="fill:#bf8faa; stroke:none;" d="M260 422L260 423L263 423L260 422M325 422L326 423L325 422z"/>
<path style="fill:#b3557d; stroke:none;" d="M326 422L327 423L326 422z"/>
<path style="fill:#bf8faa; stroke:none;" d="M346 422L347 423L346 422M329.667 423.333L330.333 423.667L329.667 423.333z"/>
<path style="fill:#b3557d; stroke:none;" d="M331.667 423.333L332.333 423.667L331.667 423.333M341 423L342 424L341 423z"/>
<path style="fill:#bf8faa; stroke:none;" d="M342.667 423.333L343.333 423.667L342.667 423.333M113 424L114 425L113 424M120 424L121 425L120 424M115 425L116 426L115 425M118.667 425.333L119.333 425.667L118.667 425.333M167 425L168 426L167 425z"/>
<path style="fill:#b3557d; stroke:none;" d="M168.144 425.89C163.146 427.265 165.917 435.065 170.775 433.338C175.416 431.688 172.695 424.639 168.144 425.89z"/>
<path style="fill:#bf8faa; stroke:none;" d="M171 425L172 426L171 425z"/>
<path style="fill:#fde189; stroke:none;" d="M204.228 426.029C197.543 430.083 204.314 440.321 210.852 436.102C217.722 431.668 211.124 421.846 204.228 426.029z"/>
<path style="fill:#bf8faa; stroke:none;" d="M141 426L142 427L141 426M165 426L166 427L165 426M172 426L173 427L172 426M138 427L137 429L138 427z"/>
<path style="fill:#b3557d; stroke:none;" d="M139.318 428.047C134.908 430.776 139.187 437.462 143.566 434.777C148.003 432.057 143.763 425.297 139.318 428.047z"/>
<path style="fill:#bf8faa; stroke:none;" d="M144 427L145 428L144 427M173 427L174 428L173 427M164 428L164 431L165 431L164 428z"/>
<path style="fill:#fde189; stroke:none;" d="M98.1481 432.032C91.6591 435.77 97.181 446.06 103.941 442.778C111.69 439.016 105.322 427.899 98.1481 432.032z"/>
<path style="fill:#bf8faa; stroke:none;" d="M136 431L137 432L136 431M173 431L174 432L173 431M165 432L166 433L165 432M145 433L146 434L145 433M166 433L167 434L166 433M172 433L173 434L172 433M168 434L168 435L171 435L168 434M139 435L140 436L139 435M143 435L144 436L143 435z"/>
<path style="fill:#fde189; stroke:none;" d="M172.109 444.873C164.866 447.921 170.009 458.644 176.941 456.214C184.587 453.534 179.713 441.673 172.109 444.873M134.109 446.785C126.551 449.55 131.263 461.255 138.891 458.242C146.359 455.293 141.453 444.099 134.109 446.785z"/>
</svg>
