<?xml version="1.0" standalone="no"?>
<!DOCTYPE svg PUBLIC "-//W3C//DTD SVG 20010904//EN"
 "http://www.w3.org/TR/2001/REC-SVG-20010904/DTD/svg10.dtd">
<svg version="1.0" xmlns="http://www.w3.org/2000/svg"
 width="800.000000pt" height="800.000000pt" viewBox="0 0 800.000000 800.000000"
 preserveAspectRatio="xMidYMid meet">

<g transform="translate(0.000000,800.000000) scale(0.100000,-0.100000)"
fill="#000000" stroke="none">
<path d="M1448 4869 c-36 -21 -16 -79 27 -79 43 0 59 44 27 73 -21 19 -30 20
-54 6z"/>
<path d="M1730 4794 c-22 -26 -1 -69 34 -69 38 0 54 25 38 59 -13 30 -52 35
-72 10z"/>
<path d="M1197 4762 c-30 -33 -15 -72 28 -72 44 0 63 60 26 80 -27 14 -35 13
-54 -8z"/>
<path d="M1956 4624 c-19 -18 -20 -28 -6 -55 19 -35 80 -18 80 22 0 21 -26 49
-45 49 -7 0 -21 -7 -29 -16z"/>
<path d="M1002 4568 c-28 -28 -3 -84 34 -76 43 8 44 88 1 88 -13 0 -28 -5 -35
-12z"/>
<path d="M3265 4506 c-149 -47 -207 -149 -206 -361 0 -238 90 -364 273 -382
132 -12 234 45 289 162 32 67 31 69 -41 80 -25 3 -52 8 -61 11 -11 3 -22 -8
-34 -36 -42 -94 -131 -119 -200 -59 -51 45 -69 114 -63 248 7 160 47 221 146
221 45 0 85 -33 108 -87 l14 -31 57 13 c32 8 64 14 71 15 36 1 -24 119 -83
164 -69 53 -181 70 -270 42z"/>
<path d="M2310 4140 l0 -372 163 4 c143 3 168 7 214 27 99 44 155 130 175 269
21 153 -18 293 -103 365 -66 57 -113 69 -291 74 l-158 5 0 -372z m300 225 c65
-33 93 -99 94 -220 1 -157 -49 -237 -158 -250 -30 -4 -59 -4 -65 0 -13 7 -16
477 -4 489 10 10 102 -3 133 -19z"/>
<path d="M3860 4140 l0 -370 275 0 275 0 0 60 0 60 -195 0 -195 0 0 100 0 100
165 0 165 0 0 60 0 60 -165 0 -165 0 0 90 0 90 180 0 180 0 0 60 0 60 -260 0
-260 0 0 -370z"/>
<path d="M4620 4140 l0 -370 275 0 275 0 0 60 0 60 -195 0 -195 0 0 100 0 100
165 0 165 0 0 60 0 60 -165 0 -165 0 0 90 0 90 180 0 180 0 0 60 0 60 -260 0
-260 0 0 -370z"/>
<path d="M902 4318 c-39 -39 17 -100 58 -63 34 31 20 75 -25 75 -12 0 -26 -5
-33 -12z"/>
<path d="M957 4043 c-11 -11 -8 -48 5 -61 17 -17 53 -15 68 3 21 25 -3 65 -38
65 -16 0 -32 -3 -35 -7z"/>
<path d="M1910 3866 c-28 -35 11 -93 48 -70 35 22 22 84 -18 84 -10 0 -23 -7
-30 -14z"/>
<path d="M1137 3824 c-15 -15 -7 -63 13 -74 33 -17 62 4 58 43 -3 27 -7 32
-33 35 -17 2 -34 0 -38 -4z"/>
<path d="M1668 3739 c-21 -12 -24 -49 -6 -67 39 -39 100 17 63 58 -20 22 -32
24 -57 9z"/>
<path d="M1382 3718 c-32 -32 4 -87 48 -73 25 8 37 50 20 70 -15 18 -51 20
-68 3z"/>
</g>
</svg>
